<?xml version="1.0" encoding="utf-8"?>
<!-- Generator: Adobe Illustrator 26.0.3, SVG Export Plug-In . SVG Version: 6.00 Build 0)  -->
<svg version="1.0" id="katman_1" xmlns="http://www.w3.org/2000/svg" xmlns:xlink="http://www.w3.org/1999/xlink" x="0px" y="0px"
	 viewBox="0 0 800 600" style="enable-background:new 0 0 800 600;" xml:space="preserve">
<path d="M218.9,340h-3.7v17.9h3.8c5.5,0,9.1-2.5,9.1-9S224.4,340,218.9,340z"/>
<path d="M249.9,287.7c-2-2.1-12-6.8-14.4-8.7c-14.6,12.6-29.7,23.3-50.7,23.3c-1.6,0-3.2-0.1-4.8-0.3v6.5c1.7,0.2,3.4,0.3,5.2,0.3
	C203.7,308.7,236,299.3,249.9,287.7z"/>
<path d="M182.4,251.9c20.7-0.6,34.3,17.7,34.3,17.7S202,290,186.3,290c-2.1,0-4.1-0.3-6.1-1v5.9c1.9,0.3,3.8,0.5,5.8,0.5
	c22.4,0,43.9-26.1,43.9-26.1s-18.7-24.6-47.5-23.6l-2.2,0.1v6.1L182.4,251.9z"/>
<path d="M155.5,271.5c6.6-6.6,15.3-10.8,24.6-11.9V252c-6.7,0.5-13.2,2.5-19.1,5.7c-5.9,3.2-11.1,7.6-15.1,12.9
	c0,0,8.7,28.1,34.3,31.3v-7C160.9,291.5,155.5,271.5,155.5,271.5z"/>
<path d="M180.1,266.1c-8.1-1-14.4,6.5-14.4,6.5s3.5,12.7,14.4,16.4L180.1,266.1L180.1,266.1z"/>
<path d="M194.7,278.7l10.7-9.1c-2.6-3.1-5.8-5.6-9.4-7.4c-3.6-1.8-7.6-2.8-11.7-2.9c-1.4,0-2.8,0.1-4.2,0.2v6.5
	C188.3,267.1,189.8,270.6,194.7,278.7z"/>
<path d="M80.2,195.5v208.1h583.5l55.8-208.1H80.2z M180.2,245.9v-11.3h79.3v83.6h-79.3v-9.8c-34.8-3.3-47.2-38.9-47.2-38.9
	S154.9,247.9,180.2,245.9z M153.7,364.6H145v-13.7c0-4.4-0.6-6.8-2-8.2c-0.6-0.7-1.4-1.2-2.3-1.6c-0.9-0.4-1.8-0.5-2.7-0.5H131v23.9
	h-9v-31.4h16c7.7,0,15.7,1.7,15.7,14.1L153.7,364.6z M178,364.6h-12.8L155,333.2h9.6l7.1,24.9l7.4-24.9h9.1L178,364.6z M200.8,364.6
	h-8.9v-31.4h8.9V364.6z M233.6,360.5c-2.8,2.7-5.2,4.1-12.9,4.1h-14.4v-31.4h12.5c7.1,0,11.8,0.8,15.1,5.2c2.1,3.3,3.1,7.1,2.9,11
	C236.9,353.3,235.8,357.2,233.6,360.5z M249.7,364.6h-8.9v-31.4h8.9L249.7,364.6z M280.6,364.6l-1.9-5.5h-14.7l-2,5.5h-8.8
	l12.4-31.4h11.8l12.5,31.4H280.6z M296.3,367.2c-0.9,0-1.7-0.2-2.5-0.7s-1.3-1.1-1.7-2s-0.5-1.7-0.3-2.6c0.2-0.9,0.6-1.7,1.2-2.3
	c0.6-0.6,1.4-1.1,2.3-1.2c0.9-0.2,1.8-0.1,2.6,0.2c0.8,0.3,1.5,0.9,2,1.6c0.5,0.7,0.8,1.6,0.8,2.5c0,1.2-0.4,2.3-1.3,3.1
	C298.6,366.7,297.5,367.2,296.3,367.2L296.3,367.2z M656.1,393.2H323.6l50.2-187.3h332.4L656.1,393.2z"/>
<path d="M296.3,359.3c-0.7,0-1.4,0.2-2,0.6c-0.6,0.4-1.1,0.9-1.4,1.6c-0.3,0.7-0.4,1.4-0.2,2.1c0.1,0.7,0.5,1.3,1,1.8
	c0.5,0.5,1.1,0.9,1.8,1c0.7,0.1,1.4,0.1,2.1-0.2c0.7-0.3,1.2-0.7,1.6-1.3c0.4-0.6,0.6-1.3,0.6-2c0-0.5-0.1-0.9-0.2-1.4
	c-0.2-0.4-0.4-0.8-0.8-1.2c-0.3-0.3-0.7-0.6-1.2-0.8C297.2,359.3,296.8,359.3,296.3,359.3z M297.1,365.1l-0.9-1.8h-0.5v1.8h-1v-4.7
	h1.9c0.2,0,0.4,0,0.6,0.1c0.2,0.1,0.4,0.2,0.5,0.3c0.1,0.1,0.3,0.3,0.3,0.5c0.1,0.2,0.1,0.4,0.1,0.6c0,0.3-0.1,0.5-0.2,0.8
	c-0.2,0.2-0.4,0.4-0.6,0.5l1,1.9H297.1z"/>
<path d="M266,353.7h10.9l-5.4-14.7L266,353.7z"/>
<path d="M296.5,361.3h-0.7v1.3h0.7c0.1,0,0.2,0,0.3,0c0.1,0,0.2-0.1,0.3-0.1c0.1-0.1,0.1-0.1,0.2-0.2c0-0.1,0.1-0.2,0.1-0.3
	c0-0.1,0-0.2-0.1-0.3c0-0.1-0.1-0.2-0.2-0.2c-0.1-0.1-0.2-0.1-0.3-0.1C296.7,361.3,296.6,361.3,296.5,361.3L296.5,361.3z"/>
<path d="M475.8,364.6h-17.2l-20.1-33.4h-15v33.4h-15.9v-82h49.2c3.7,0,7.2,1.4,9.7,4c2.6,2.6,4,6.1,4,9.7v21.2c0,3.6-1.5,7.1-4,9.7
	c-2.6,2.6-6.1,4-9.7,4h-1L475.8,364.6z M423.4,316.6h26.7c0.5,0,1.1-0.1,1.6-0.3c0.5-0.2,1-0.5,1.3-0.9c0.4-0.4,0.7-0.8,0.9-1.3
	c0.2-0.5,0.3-1,0.3-1.6v-11.2c0-1.1-0.4-2.2-1.2-2.9c-0.8-0.8-1.8-1.2-2.9-1.3h-26.7V316.6z"/>
<path d="M542.4,282.6v14.2h-23.5v67.8h-16v-67.8h-23.5v-14.2H542.4z"/>
<path d="M603.6,282.6h17.7l-25.8,38.9l27.3,43.1h-19.3l-17.8-28l-18,28h-17.6l27.2-41.3l-25.6-40.7h19.3l16.3,25.8L603.6,282.6z"/>
<path d="M632.1,282.6v0.9h-2.5v6.7h-1.1v-6.7h-2.3v-0.9H632.1z M639.4,282.6h1v7.6h-0.9v-5.9l-2.2,3.8h-0.8l-2.1-3.6v5.8h-1v-7.6h1
	l2.6,4.4L639.4,282.6z"/>
<path d="M407.4,240.3c0-0.8,0.1-1.5,0.4-2.2c0.3-0.7,0.7-1.3,1.2-1.9c0.5-0.5,1.2-1,1.9-1.2c0.7-0.3,1.5-0.4,2.2-0.4h21.8v6.2h-19
	c-0.5,0-0.9,0.2-1.2,0.5c-0.3,0.3-0.5,0.7-0.5,1.2v16.1c0,0.4,0.2,0.9,0.5,1.2l2.4,2.4c0.2,0.2,0.4,0.3,0.6,0.4
	c0.2,0.1,0.5,0.1,0.7,0.1h9.2c0.2,0,0.5,0,0.7-0.1c0.2-0.1,0.4-0.2,0.6-0.4c0.2-0.2,0.3-0.4,0.4-0.6s0.1-0.4,0.1-0.7v-6.2h-8.1v-6.2
	h14.9v14.6c0,1.5-0.6,3-1.7,4c-1.1,1.1-2.5,1.7-4.1,1.7H415c-0.5,0-0.9-0.2-1.2-0.5l-5.9-5.9c-0.3-0.3-0.5-0.8-0.5-1.2V240.3z"/>
<path d="M448.7,240.7v8.1h14v6.1h-14v8H466v6.1h-24v-34.4h24v6.1H448.7z"/>
<path d="M477.8,269h-6.7v-34.4h24.1v6.1h-17.4v8.1h13.9v6.1h-13.9V269z"/>
<path d="M500,240.3c0-1.5,0.6-3,1.6-4c1.1-1.1,2.5-1.7,4-1.7h17.3c1.5,0,3,0.6,4,1.7c1.1,1.1,1.7,2.5,1.7,4v22.9
	c0,0.7-0.1,1.5-0.4,2.2c-0.3,0.7-0.7,1.3-1.2,1.8c-0.5,0.5-1.2,0.9-1.9,1.2c-0.7,0.3-1.4,0.4-2.2,0.4h-17.3c-0.7,0-1.5-0.2-2.2-0.4
	c-0.7-0.3-1.3-0.7-1.8-1.2c-0.5-0.5-0.9-1.2-1.2-1.8c-0.3-0.7-0.4-1.4-0.4-2.2V240.3z M520.2,262.9c0.2,0,0.5,0,0.7-0.1
	c0.2-0.1,0.4-0.2,0.6-0.4c0.2-0.2,0.3-0.3,0.4-0.6c0.1-0.2,0.1-0.4,0.1-0.7v-18.7c0-0.5-0.2-0.9-0.5-1.2c-0.3-0.3-0.8-0.5-1.2-0.5
	h-11.9c-0.2,0-0.5,0.1-0.7,0.1c-0.2,0.1-0.4,0.2-0.6,0.4c-0.2,0.2-0.3,0.4-0.4,0.6c-0.1,0.2-0.1,0.4-0.1,0.7v18.8
	c0,0.5,0.2,0.9,0.5,1.2c0.3,0.3,0.8,0.5,1.2,0.5L520.2,262.9z"/>
<path d="M562.9,269h-7.2l-8.5-14h-6.3v14h-6.6v-34.4h20.6c0.8,0,1.5,0.1,2.2,0.4c0.7,0.3,1.3,0.7,1.9,1.2c0.5,0.5,1,1.2,1.2,1.9
	c0.3,0.7,0.4,1.4,0.4,2.2v8.9c0,0.8-0.1,1.5-0.4,2.2c-0.3,0.7-0.7,1.3-1.2,1.9c-0.5,0.5-1.2,1-1.9,1.2c-0.7,0.3-1.5,0.4-2.2,0.4
	h-0.4L562.9,269z M540.9,248.9h11.2c0.5,0,0.9-0.2,1.2-0.5c0.3-0.3,0.5-0.8,0.5-1.2v-4.7c0-0.2,0-0.5-0.1-0.7
	c-0.1-0.2-0.2-0.4-0.4-0.6c-0.2-0.2-0.3-0.3-0.6-0.4c-0.2-0.1-0.4-0.1-0.7-0.1h-11.2V248.9z"/>
<path d="M589.4,240.7h-14.6c-0.5,0-0.9,0.2-1.2,0.5c-0.3,0.3-0.5,0.7-0.5,1.2v18.8c0,0.5,0.2,0.9,0.5,1.2c0.3,0.3,0.8,0.5,1.2,0.5
	h14.6v6.1h-17.2c-0.8,0-1.5-0.1-2.2-0.4c-0.7-0.3-1.3-0.7-1.9-1.2c-0.5-0.5-1-1.2-1.2-1.8c-0.3-0.7-0.4-1.4-0.4-2.2v-23
	c0-0.8,0.1-1.5,0.4-2.2c0.3-0.7,0.7-1.3,1.2-1.9c0.5-0.5,1.2-1,1.9-1.2c0.7-0.3,1.4-0.4,2.2-0.4h17.2V240.7z"/>
<path d="M601.7,240.7v8.1h14v6.1h-14v8h17.4v6.1H595v-34.4h24.1v6.1H601.7z"/>
</svg>
