<?xml version="1.0" encoding="utf-8"?>
<!-- Generator: Adobe Illustrator 16.0.0, SVG Export Plug-In . SVG Version: 6.00 Build 0)  -->
<!DOCTYPE svg PUBLIC "-//W3C//DTD SVG 1.1//EN" "http://www.w3.org/Graphics/SVG/1.1/DTD/svg11.dtd">
<svg version="1.1" id="Layer_1" xmlns="http://www.w3.org/2000/svg" xmlns:xlink="http://www.w3.org/1999/xlink" x="0px" y="0px"
	 width="1500px" height="312px" viewBox="0 0 1500 312" enable-background="new 0 0 1500 312" xml:space="preserve">
<title>prointegrada_cliente_royalenfield</title>
<g id="Layer_2">
	<g>
		<g id="Capa_1_8_">
			<path fill="#E53517" d="M439.999,170.106l12.661-38.285h0.213l13.299,38.285H439.999z M479.667,88.341h-45.484v0.621
				c1.639,2.841,2.443,6.085,2.323,9.363c0,5.55-3.334,15.232-4.593,19.399l-28.763,83.167
				c-3.759,10.639-4.344,13.653-11.508,23.975v0.62h37.948v-0.603c-1.797-2.957-2.754-6.348-2.767-9.807
				c0-5.32,2.376-12.697,3.83-16.881l2.021-5.888h41.211c0,0,2.624,7.519,4.149,11.935c1.149,3.369,1.749,6.901,1.773,10.461
				c-0.117,3.492-0.843,6.938-2.146,10.18v0.62h54.971v-0.62c-5.958-7.484-8.618-15.854-13.618-29.188L479.667,88.341z"/>
			<path fill="#E53517" d="M368.324,195.074c0,12.094,0.869,23.336,4.859,29.809v0.62H319.63v-0.62
				c5.409-9.08,4.451-18.549,4.451-29.401v-22.538v-5.32l-7.537-14.186l-25.73-48.41c-3.546-6.667-6.188-11.065-11.704-15.959
				v-0.727h46.938v0.621l27.84,56.638l7.696-15.658c2.837-5.781,6.348-12.945,7.643-15.551c2.323-4.628,4.806-10.746,4.806-15.853
				c0.2-3.299-0.823-6.557-2.873-9.15v-1.046h37.238v0.621l-37.238,74.478l-2.82,5.639L368.324,195.074z"/>
			<path fill="#E53517" d="M639.526,225.521h-96.643v-0.638c4.043-8.867,4.45-15.96,4.45-29.188v-77.722
				c0-15.959-1.524-22.467-4.45-28.975v-0.656h52.452v0.621c-3.352,9.398-3.724,14.931-3.724,29.383v78.821
				c6.723,1.172,13.533,1.766,20.357,1.773c15.87,0,24.134-1.348,30.039-4.078h1.276L639.526,225.521z"/>
			<path fill="#E53517" d="M50.077,144.926V82.294h15.002c17.644,0,25.039,10.303,25.039,26.865
				c0,20.073-11.846,35.749-30.695,35.749L50.077,144.926z M214.99,85.008c-42.789,0-72.295,26.351-72.295,63.837
				c0,54.563,57.95,62.384,77.899,44.704l-3.387-7.094c-17.555,3.547-33.479-9.859-33.479-39.703
				c0-24.276,12.732-39.419,30.588-39.419c20.393,0,33.32,20.676,33.32,50.378c0,33.816-19.399,59.457-56.018,59.457
				c-41.636,0-73.289-32.822-92.475-65.61c21.438-8.441,34.135-24.578,34.135-46.655c0-28.585-21.403-48.48-60.291-48.48H0v0.621
				c2.926,6.472,4.451,18.229,4.451,34.224v104.445c0,13.211-0.408,20.393-4.451,29.171v0.62h54.616v-0.62
				c-3.546-8.494-4.54-19.4-4.54-29.171c0-16.226,0-28.886,0-28.886h6.667c37.895,55.449,80.896,78.431,126.965,78.431
				c66.604,0,106.041-41.973,106.041-88.982c0.018-39.313-30.181-71.267-74.832-71.267H214.99z"/>
			<path fill="#E53517" d="M964.653,88.979c-2.926,6.508-4.362,12.98-4.362,28.975v85.293c0.248,8.707,1.17,14.684,4.362,21.635
				v0.62h-31.919c-6.721-2.872-14.187-11.261-23.727-21.599c-7.767-8.458-44.828-50.804-44.828-50.804h-0.603c0,0,0,40.04,0,40.785
				c-11.227,1.218-22.33,3.378-33.195,6.454v-82.385c0-15.959-1.525-22.449-4.451-28.957v-0.656h38.692l62.437,74.903v-0.213
				v-45.077c0-15.959-1.507-22.467-4.433-28.975v-0.638h42.026V88.979z"/>
			<path fill="#E53517" d="M900.815,225.539c-54.314,0.496-67.224,30.038-136.222,30.038c-21.238-0.245-42.362-3.146-62.88-8.636
				v-0.639c4.043-8.865,4.451-15.959,4.451-29.081V91.32c0-15.959-1.525-27.716-4.451-34.206v-0.691h111.449l3.671,30.908h-0.62
				c-8.246-3.228-18.619-4.345-33.195-4.345h-29.525v53.553h14.328c21.864,0,34.986-1.578,38.355-2.412h1.046v32.238h-1.046
				c-4.558-1.632-19.647-3.121-37.788-3.121h-14.576v53.41c10.775,2.464,21.772,3.83,32.823,4.078
				c40.998,0,58.624-14.664,99.657-14.664c1.33,0,2.287,0,3.671,0c5.419,6.932,11.347,13.451,17.732,19.506L900.815,225.539z"/>
			<path fill="#E53517" d="M1137.511,117.955v77.74c0,13.229,0.39,20.321,4.468,29.188v0.62h-53.197v-0.62
				c4.043-8.867,4.433-15.96,4.433-29.188v-77.74c0-15.959-1.507-22.467-4.433-28.975v-0.638h53.197v0.638
				C1139.018,95.435,1137.511,101.96,1137.511,117.955z"/>
			<path fill="#E53517" d="M1031.114,148.189h3.707c19.506,0,25.907-1.419,28.939-2.164h0.939v28.372h-0.939
				c-4.061-1.454-12.183-2.784-28.372-2.784h-4.221v23.461c0,13.689,0.727,23.052,4.858,29.809v0.62h-53.641v-0.62
				c4.043-8.867,4.451-15.96,4.451-29.188v-77.74c0-15.959-1.525-22.467-4.451-28.975v-0.638h91.429l3.37,27.716h-0.621
				c-6.33-2.819-14.718-4.451-27.733-4.451h-17.733v36.583H1031.114z"/>
			<path fill="#E53517" d="M1257.666,197.024l-3.546,28.479h-93.983v-0.62c4.044-8.867,4.451-15.96,4.451-29.188v-77.74
				c0-15.959-1.524-22.485-4.451-28.975v-0.638h91.43l3.387,27.716h-0.639c-6.33-2.819-14.7-4.451-27.716-4.451h-17.732v32.309
				h3.741c19.506,0,25.925-1.418,28.94-2.163h0.939v28.372h-0.939c-4.079-1.454-12.183-2.784-28.373-2.784h-4.237v32.273
				c6.002,1.033,12.085,1.52,18.176,1.454c16.579,0,22.751-1.063,29.596-3.972L1257.666,197.024z"/>
			<path fill="#E53517" d="M1500,161.169c0,46.832-34.454,84.034-92.067,84.034c-44.633,0-58.748-19.506-114.181-19.664h-22.945
				v-0.656c4.043-8.867,4.433-15.96,4.433-29.188v-77.757c0-15.959-1.525-22.467-4.433-28.975v-0.621h53.197v0.621
				c-3.139,6.561-4.451,16.668-4.451,29.401v83.591c33.125,0,47.347,10.001,76.445,10.001c40.253,0,59.6-22.166,59.6-53.481
				c0-26.847-13.85-46.885-37.966-46.885h-15.516v84.921c-14.789,0.728-31.635-1.276-44.332-5.674v-72.899
				c0-15.959-1.524-22.467-4.45-28.975v-0.621h62.063C1467.337,88.341,1500,119.923,1500,161.169z"/>
		</g>
	</g>
</g>
</svg>
